<?xml version="1.0" encoding="UTF-8" standalone="no"?>
<!-- Created with Inkscape (http://www.inkscape.org/) -->

<svg
   xmlns:dc="http://purl.org/dc/elements/1.1/"
   xmlns:cc="http://creativecommons.org/ns#"
   xmlns:rdf="http://www.w3.org/1999/02/22-rdf-syntax-ns#"
   xmlns:svg="http://www.w3.org/2000/svg"
   xmlns="http://www.w3.org/2000/svg"
   xmlns:sodipodi="http://sodipodi.sourceforge.net/DTD/sodipodi-0.dtd"
   xmlns:inkscape="http://www.inkscape.org/namespaces/inkscape"
   width="460"
   height="200"
   viewBox="0 0 460.00001 200.00001"
   id="svg4194"
   version="1.1"
   inkscape:version="0.91 r13725"
   sodipodi:docname="akalyz-aka-polamjag.svg">
  <defs
     id="defs4196" />
  <sodipodi:namedview
     id="base"
     pagecolor="#ffffff"
     bordercolor="#666666"
     borderopacity="1.0"
     inkscape:pageopacity="0.0"
     inkscape:pageshadow="2"
     inkscape:zoom="1"
     inkscape:cx="191.94505"
     inkscape:cy="-324.47362"
     inkscape:document-units="px"
     inkscape:current-layer="layer1"
     showgrid="false"
     fit-margin-top="0"
     fit-margin-left="0"
     fit-margin-right="0"
     fit-margin-bottom="0"
     inkscape:window-width="1080"
     inkscape:window-height="1865"
     inkscape:window-x="0"
     inkscape:window-y="29"
     inkscape:window-maximized="1"
     units="px" />
  <metadata
     id="metadata4199">
    <rdf:RDF>
      <cc:Work
         rdf:about="">
        <dc:format>image/svg+xml</dc:format>
        <dc:type
           rdf:resource="http://purl.org/dc/dcmitype/StillImage" />
        <dc:title></dc:title>
      </cc:Work>
    </rdf:RDF>
  </metadata>
  <g
     inkscape:label="Layer 1"
     inkscape:groupmode="layer"
     id="layer1"
     transform="translate(37.546034,-7.8885684)">
    <g
       id="g4149"
       transform="translate(1.0253915,-4.4736276)"
       style="fill:#ffffff">
      <path
         inkscape:connector-curvature="0"
         style="color:#000000;font-style:normal;font-variant:normal;font-weight:normal;font-stretch:normal;font-size:medium;line-height:normal;font-family:sans-serif;text-indent:0;text-align:start;text-decoration:none;text-decoration-line:none;text-decoration-style:solid;text-decoration-color:#000000;letter-spacing:normal;word-spacing:normal;text-transform:none;direction:ltr;block-progression:tb;writing-mode:lr-tb;baseline-shift:baseline;text-anchor:start;white-space:normal;clip-rule:nonzero;display:inline;overflow:visible;visibility:visible;opacity:1;isolation:auto;mix-blend-mode:normal;color-interpolation:sRGB;color-interpolation-filters:linearRGB;solid-color:#000000;solid-opacity:1;fill:#ffffff;fill-opacity:1;fill-rule:evenodd;stroke:none;stroke-width:1;stroke-linecap:butt;stroke-linejoin:miter;stroke-miterlimit:4;stroke-dasharray:none;stroke-dashoffset:0;stroke-opacity:1;color-rendering:auto;image-rendering:auto;shape-rendering:auto;text-rendering:auto;enable-background:accumulate"
         d="m 122.62959,16.835834 -22.39626,22.396252 0,93.396854 24.57302,24.57047 23.33803,-22.66456 29.2943,29.29431 0,31.34176 -12.71763,12.71765 29.23714,0 131.756,-131.75347 -14.61857,-14.621061 -42.81206,42.812081 0,-40.655192 -22.47579,0 0,63.130962 -14.00977,14.00978 0,-122.273692 -20.67424,20.674236 0,122.273696 -13.01085,13.01078 0,-117.313795 -49.75731,48.326015 -10.99811,-10.998092 36.09792,-36.097914 -29.23715,0 -21.58867,21.588685 0,-63.165755 z m 157.67086,13.008368 -20.67423,20.674236 110.8631,0 -90.02486,90.027352 110.71648,0 -20.67423,-20.67424 -40.13087,0 90.02734,-90.027348 -140.10273,0 z M 88.457468,49.502118 -37.546034,175.50813 l 29.2371345,0 76.0921285,-76.09463 0,76.0225 20.674239,20.67181 0,-146.605692 z m 88.981212,56.580812 0,28.50907 -14.46203,-14.46203 14.46203,-14.04704 z m -54.80909,2.93713 10.89373,10.89373 -10.89373,10.58064 0,-21.47437 z"
         id="path6144" />
      <g
         id="text4137"
         style="font-style:normal;font-weight:normal;font-size:16.3302803px;line-height:125%;font-family:Sans;letter-spacing:0px;word-spacing:0px;fill:#ffffff;fill-opacity:1;stroke:none;stroke-width:1px;stroke-linecap:butt;stroke-linejoin:miter;stroke-opacity:1"
         transform="matrix(1.2722606,0,0,1.2722606,-232.91557,-192.42843)">
        <path
           id="path4142"
           style="font-style:normal;font-variant:normal;font-weight:300;font-stretch:normal;font-family:'Roboto Condensed';-inkscape-font-specification:'Roboto Condensed, Light';letter-spacing:0.51440382px;fill:#ffffff;fill-opacity:1"
           d="m 393.49945,285.33405 q -0.11961,-0.41464 -0.15948,-1.19607 -0.39869,0.64588 -1.02862,1.00469 -0.62195,0.35085 -1.35554,0.35085 -1.11632,0 -1.73828,-0.62993 -0.62195,-0.62992 -0.62195,-1.7941 0,-1.26782 0.86116,-2.00939 0.86915,-0.74156 2.39214,-0.74953 l 1.48312,0 0,-1.20404 q 0,-0.92496 -0.46248,-1.32364 -0.45451,-0.40667 -1.3396,-0.40667 -0.82129,0 -1.34756,0.47843 -0.52627,0.47843 -0.52627,1.23593 l -0.88509,-0.008 q 0,-1.06051 0.79738,-1.7941 0.79737,-0.74156 2.00141,-0.74156 1.29973,0 1.96952,0.65385 0.6698,0.65385 0.6698,1.90573 l 0,4.23407 q 0,1.26783 0.23124,1.89776 l 0,0.0957 -0.9409,0 z m -2.432,-0.69372 q 0.78143,0 1.37946,-0.40666 0.606,-0.40667 0.88509,-1.08444 l 0,-2.0971 -1.40339,0 q -1.21201,0.016 -1.82599,0.54222 -0.61398,0.51829 -0.61398,1.40338 0,1.6426 1.57881,1.6426 z"
           inkscape:connector-curvature="0" />
        <path
           id="path4144"
           style="font-style:normal;font-variant:normal;font-weight:300;font-stretch:normal;font-family:'Roboto Condensed';-inkscape-font-specification:'Roboto Condensed, Light';letter-spacing:0.51440382px;fill:#ffffff;fill-opacity:1"
           d="m 397.11565,284.75196 q 0,-0.28706 0.17542,-0.47843 0.1834,-0.19934 0.50235,-0.19934 0.31895,0 0.50234,0.19934 0.1834,0.19137 0.1834,0.47843 0,0.27908 -0.1834,0.46248 -0.18339,0.1834 -0.50234,0.1834 -0.31895,0 -0.50235,-0.1834 -0.17542,-0.1834 -0.17542,-0.46248 z"
           inkscape:connector-curvature="0" />
        <path
           id="path4146"
           style="font-style:normal;font-variant:normal;font-weight:300;font-stretch:normal;font-family:'Roboto Condensed';-inkscape-font-specification:'Roboto Condensed, Light';letter-spacing:0.51440382px;fill:#ffffff;fill-opacity:1"
           d="m 403.33927,281.02024 -0.90104,1.00469 0,3.30912 -0.89306,0 0,-12.24771 0.89306,0 0,7.79037 0.74156,-0.94091 2.67122,-3.22937 1.10038,0 -3.03004,3.64401 3.31709,4.98361 -1.05253,0 -2.84664,-4.31381 z"
           inkscape:connector-curvature="0" />
        <path
           id="path4148"
           style="font-style:normal;font-variant:normal;font-weight:300;font-stretch:normal;font-family:'Roboto Condensed';-inkscape-font-specification:'Roboto Condensed, Light';letter-spacing:0.51440382px;fill:#ffffff;fill-opacity:1"
           d="m 409.11636,284.75196 q 0,-0.28706 0.17542,-0.47843 0.1834,-0.19934 0.50235,-0.19934 0.31895,0 0.50235,0.19934 0.18339,0.19137 0.18339,0.47843 0,0.27908 -0.18339,0.46248 -0.1834,0.1834 -0.50235,0.1834 -0.31895,0 -0.50235,-0.1834 -0.17542,-0.1834 -0.17542,-0.46248 z"
           inkscape:connector-curvature="0" />
        <path
           id="path4150"
           style="font-style:normal;font-variant:normal;font-weight:300;font-stretch:normal;font-family:'Roboto Condensed';-inkscape-font-specification:'Roboto Condensed, Light';letter-spacing:0.51440382px;fill:#ffffff;fill-opacity:1"
           d="m 418.10688,285.33405 q -0.1196,-0.41464 -0.15947,-1.19607 -0.39869,0.64588 -1.02862,1.00469 -0.62195,0.35085 -1.35554,0.35085 -1.11633,0 -1.73828,-0.62993 -0.62196,-0.62992 -0.62196,-1.7941 0,-1.26782 0.86117,-2.00939 0.86914,-0.74156 2.39213,-0.74953 l 1.48312,0 0,-1.20404 q 0,-0.92496 -0.46248,-1.32364 -0.4545,-0.40667 -1.33959,-0.40667 -0.8213,0 -1.34757,0.47843 -0.52626,0.47843 -0.52626,1.23593 l -0.88509,-0.008 q 0,-1.06051 0.79737,-1.7941 0.79738,-0.74156 2.00142,-0.74156 1.29972,0 1.96952,0.65385 0.6698,0.65385 0.6698,1.90573 l 0,4.23407 q 0,1.26783 0.23124,1.89776 l 0,0.0957 -0.94091,0 z m -2.432,-0.69372 q 0.78143,0 1.37947,-0.40666 0.606,-0.40667 0.88508,-1.08444 l 0,-2.0971 -1.40338,0 q -1.21201,0.016 -1.82599,0.54222 -0.61398,0.51829 -0.61398,1.40338 0,1.6426 1.5788,1.6426 z"
           inkscape:connector-curvature="0" />
        <path
           id="path4152"
           style="font-style:normal;font-variant:normal;font-weight:300;font-stretch:normal;font-family:'Roboto Condensed';-inkscape-font-specification:'Roboto Condensed, Light';letter-spacing:0.51440382px;fill:#ffffff;fill-opacity:1"
           d="m 421.72308,284.75196 q 0,-0.28706 0.17543,-0.47843 0.18339,-0.19934 0.50234,-0.19934 0.31895,0 0.50235,0.19934 0.1834,0.19137 0.1834,0.47843 0,0.27908 -0.1834,0.46248 -0.1834,0.1834 -0.50235,0.1834 -0.31895,0 -0.50234,-0.1834 -0.17543,-0.1834 -0.17543,-0.46248 z"
           inkscape:connector-curvature="0" />
        <path
           id="path4154"
           style="font-style:normal;font-variant:normal;font-weight:300;font-stretch:normal;font-family:'Roboto Condensed';-inkscape-font-specification:'Roboto Condensed, Light';letter-spacing:0.51440382px;fill:#ffffff;fill-opacity:1"
           d="m 436.21959,281.4269 q 0,1.99344 -0.69372,3.03003 -0.69372,1.03659 -2.07318,1.03659 -1.49907,0 -2.24063,-1.19606 l 0,4.35367 -0.87711,0 0,-11.9447 0.81332,0 0.0399,1.18011 q 0.76548,-1.33959 2.24063,-1.33959 1.39541,0 2.08913,0.98875 0.69371,0.98875 0.70169,3.02206 l 0,0.86914 z m -0.88509,-0.80535 q 0,-1.65855 -0.5183,-2.43998 -0.51032,-0.78143 -1.60272,-0.78143 -1.40339,0 -2.00142,1.42731 l 0,4.54505 q 0.59803,1.29972 2.01736,1.29972 1.06849,0 1.57881,-0.78143 0.51829,-0.78143 0.52627,-2.40808 l 0,-0.86116 z"
           inkscape:connector-curvature="0" />
        <path
           id="path4156"
           style="font-style:normal;font-variant:normal;font-weight:300;font-stretch:normal;font-family:'Roboto Condensed';-inkscape-font-specification:'Roboto Condensed, Light';letter-spacing:0.51440382px;fill:#ffffff;fill-opacity:1"
           d="m 438.45633,280.58168 q 0,-1.86586 0.84522,-2.9503 0.84522,-1.08443 2.30442,-1.08443 1.46717,0 2.30441,1.06849 0.84522,1.06848 0.8532,2.94232 l 0,0.91698 q 0,1.89776 -0.8532,2.95827 -0.84521,1.06051 -2.28847,1.06051 -1.44325,0 -2.28847,-1.03659 -0.84522,-1.03659 -0.87711,-2.85461 l 0,-1.02064 z m 0.89306,0.89306 q 0,1.4911 0.59803,2.34429 0.60601,0.85319 1.67449,0.85319 1.09241,0 1.66652,-0.8213 0.58209,-0.82129 0.59006,-2.35226 l 0,-0.91698 q 0,-1.4911 -0.60601,-2.34429 -0.606,-0.86117 -1.66651,-0.86117 -1.02862,0 -1.63463,0.83725 -0.606,0.83724 -0.62195,2.30442 l 0,0.95685 z"
           inkscape:connector-curvature="0" />
        <path
           id="path4158"
           style="font-style:normal;font-variant:normal;font-weight:300;font-stretch:normal;font-family:'Roboto Condensed';-inkscape-font-specification:'Roboto Condensed, Light';letter-spacing:0.51440382px;fill:#ffffff;fill-opacity:1"
           d="m 448.30004,285.33405 -0.89306,0 0,-12.24771 0.89306,0 0,12.24771 z"
           inkscape:connector-curvature="0" />
        <path
           id="path4160"
           style="font-style:normal;font-variant:normal;font-weight:300;font-stretch:normal;font-family:'Roboto Condensed';-inkscape-font-specification:'Roboto Condensed, Light';letter-spacing:0.51440382px;fill:#ffffff;fill-opacity:1"
           d="m 455.83136,285.33405 q -0.11961,-0.41464 -0.15948,-1.19607 -0.39869,0.64588 -1.02861,1.00469 -0.62196,0.35085 -1.35554,0.35085 -1.11633,0 -1.73829,-0.62993 -0.62195,-0.62992 -0.62195,-1.7941 0,-1.26782 0.86117,-2.00939 0.86914,-0.74156 2.39213,-0.74953 l 1.48312,0 0,-1.20404 q 0,-0.92496 -0.46248,-1.32364 -0.4545,-0.40667 -1.33959,-0.40667 -0.8213,0 -1.34757,0.47843 -0.52627,0.47843 -0.52627,1.23593 l -0.88509,-0.008 q 0,-1.06051 0.79738,-1.7941 0.79738,-0.74156 2.00142,-0.74156 1.29972,0 1.96952,0.65385 0.66979,0.65385 0.66979,1.90573 l 0,4.23407 q 0,1.26783 0.23124,1.89776 l 0,0.0957 -0.9409,0 z m -2.432,-0.69372 q 0.78143,0 1.37946,-0.40666 0.60601,-0.40667 0.88509,-1.08444 l 0,-2.0971 -1.40338,0 q -1.21202,0.016 -1.826,0.54222 -0.61398,0.51829 -0.61398,1.40338 0,1.6426 1.57881,1.6426 z"
           inkscape:connector-curvature="0" />
        <path
           id="path4162"
           style="font-style:normal;font-variant:normal;font-weight:300;font-stretch:normal;font-family:'Roboto Condensed';-inkscape-font-specification:'Roboto Condensed, Light';letter-spacing:0.51440382px;fill:#ffffff;fill-opacity:1"
           d="m 460.28481,276.70643 0.0239,1.29175 q 0.80535,-1.45123 2.31239,-1.45123 1.66652,0 2.15292,1.58678 0.40666,-0.7894 1.04457,-1.18809 0.64587,-0.39869 1.40338,-0.39869 2.32834,0 2.38416,2.99814 l 0,5.78896 -0.88509,0 0,-5.73314 q -0.016,-1.11633 -0.41464,-1.65855 -0.39869,-0.55019 -1.3077,-0.55019 -0.8213,0.0159 -1.38743,0.6379 -0.56614,0.62196 -0.64588,1.56286 l 0,5.74112 -0.89306,0 0,-5.70922 q 0,-1.13228 -0.42261,-1.68247 -0.41464,-0.55019 -1.29972,-0.55019 -0.72562,0 -1.25986,0.50235 -0.52627,0.50235 -0.76548,1.43528 l 0,6.00425 -0.88509,0 0,-8.62762 0.84522,0 z"
           inkscape:connector-curvature="0" />
        <path
           id="path4164"
           style="font-style:normal;font-variant:normal;font-weight:300;font-stretch:normal;font-family:'Roboto Condensed';-inkscape-font-specification:'Roboto Condensed, Light';letter-spacing:0.51440382px;fill:#ffffff;fill-opacity:1"
           d="m 473.37385,276.70643 0,9.58447 q 0,2.52768 -1.90573,2.52768 -0.37477,0 -0.70967,-0.1515 l 0.008,-0.80535 q 0.31098,0.10366 0.59006,0.10366 1.13228,0 1.13228,-1.61868 l 0,-9.64028 0.88509,0 z m -1.02065,-2.48782 q 0,-0.27111 0.14353,-0.46248 0.1515,-0.19137 0.43059,-0.19137 0.27908,0 0.43058,0.19137 0.15947,0.19137 0.15947,0.46248 0,0.27111 -0.15947,0.46248 -0.1515,0.1834 -0.43058,0.1834 -0.27909,0 -0.43059,-0.1834 -0.14353,-0.19137 -0.14353,-0.46248 z"
           inkscape:connector-curvature="0" />
        <path
           id="path4166"
           style="font-style:normal;font-variant:normal;font-weight:300;font-stretch:normal;font-family:'Roboto Condensed';-inkscape-font-specification:'Roboto Condensed, Light';letter-spacing:0.51440382px;fill:#ffffff;fill-opacity:1"
           d="m 480.97693,285.33405 q -0.11961,-0.41464 -0.15947,-1.19607 -0.39869,0.64588 -1.02862,1.00469 -0.62195,0.35085 -1.35554,0.35085 -1.11633,0 -1.73828,-0.62993 -0.62196,-0.62992 -0.62196,-1.7941 0,-1.26782 0.86117,-2.00939 0.86914,-0.74156 2.39213,-0.74953 l 1.48312,0 0,-1.20404 q 0,-0.92496 -0.46248,-1.32364 -0.4545,-0.40667 -1.33959,-0.40667 -0.8213,0 -1.34757,0.47843 -0.52627,0.47843 -0.52627,1.23593 l -0.88508,-0.008 q 0,-1.06051 0.79737,-1.7941 0.79738,-0.74156 2.00142,-0.74156 1.29972,0 1.96952,0.65385 0.6698,0.65385 0.6698,1.90573 l 0,4.23407 q 0,1.26783 0.23124,1.89776 l 0,0.0957 -0.94091,0 z m -2.432,-0.69372 q 0.78143,0 1.37946,-0.40666 0.60601,-0.40667 0.88509,-1.08444 l 0,-2.0971 -1.40338,0 q -1.21201,0.016 -1.82599,0.54222 -0.61399,0.51829 -0.61399,1.40338 0,1.6426 1.57881,1.6426 z"
           inkscape:connector-curvature="0" />
        <path
           id="path4168"
           style="font-style:normal;font-variant:normal;font-weight:300;font-stretch:normal;font-family:'Roboto Condensed';-inkscape-font-specification:'Roboto Condensed, Light';letter-spacing:0.51440382px;fill:#ffffff;fill-opacity:1"
           d="m 484.30608,280.62155 q 0,-2.04129 0.70169,-3.05396 0.70169,-1.02064 2.10507,-1.02064 1.4911,0 2.21671,1.36352 l 0.0478,-1.20404 0.8213,0 0,8.8748 q -0.008,1.56286 -0.74953,2.37619 -0.73359,0.81332 -2.14495,0.81332 -0.70966,0 -1.43527,-0.35085 -0.71764,-0.34287 -1.09241,-0.84522 l 0.41463,-0.6379 q 0.88509,1.01267 2.04926,1.01267 1.07646,0 1.56286,-0.57411 0.49438,-0.57411 0.50235,-1.74626 l 0,-1.37148 q -0.72561,1.23593 -2.20076,1.23593 -1.34757,0 -2.06521,-1.01267 -0.70966,-1.01267 -0.73358,-2.92637 l 0,-0.93293 z m 0.89306,0.80535 q 0,1.65854 0.50235,2.43997 0.50234,0.78143 1.5788,0.78143 1.43528,0 2.02534,-1.36351 l 0,-4.4095 q -0.59803,-1.47515 -2.00939,-1.47515 -1.08443,0 -1.58678,0.77346 -0.50235,0.77346 -0.51032,2.39213 l 0,0.86117 z"
           inkscape:connector-curvature="0" />
      </g>
    </g>
  </g>
</svg>
