<?xml version="1.0" encoding="UTF-8" standalone="no"?>
<svg
   xmlns:dc="http://purl.org/dc/elements/1.1/"
   xmlns:cc="http://creativecommons.org/ns#"
   xmlns:rdf="http://www.w3.org/1999/02/22-rdf-syntax-ns#"
   xmlns:svg="http://www.w3.org/2000/svg"
   xmlns="http://www.w3.org/2000/svg"
   xmlns:sodipodi="http://sodipodi.sourceforge.net/DTD/sodipodi-0.dtd"
   xmlns:inkscape="http://www.inkscape.org/namespaces/inkscape"
   version="1.1"
   x="0px"
   y="0px"
   width="100"
   height="100"
   viewBox="0 0 100 100"
   id="svg2"
   inkscape:version="0.91 r13725"
   sodipodi:docname="mixcloud.svg">
  <metadata
     id="metadata10">
    <rdf:RDF>
      <cc:Work
         rdf:about="">
        <dc:format>image/svg+xml</dc:format>
        <dc:type
           rdf:resource="http://purl.org/dc/dcmitype/StillImage" />
        <dc:title></dc:title>
      </cc:Work>
    </rdf:RDF>
  </metadata>
  <defs
     id="defs8" />
  <sodipodi:namedview
     pagecolor="#ffffff"
     bordercolor="#666666"
     borderopacity="1"
     objecttolerance="10"
     gridtolerance="10"
     guidetolerance="10"
     inkscape:pageopacity="0"
     inkscape:pageshadow="2"
     inkscape:window-width="658"
     inkscape:window-height="480"
     id="namedview6"
     showgrid="false"
     inkscape:zoom="1.84375"
     inkscape:cx="30.168052"
     inkscape:cy="64"
     inkscape:window-x="0"
     inkscape:window-y="29"
     inkscape:window-maximized="0"
     inkscape:current-layer="svg2" />
  <path
     d="m 41.540063,28.501877 c -7.264497,0.476675 -13.749733,4.978812 -16.554897,11.82774 -0.362404,0.88278 -0.835092,1.255892 -1.748847,1.472717 -6.59145,1.576618 -10.820554,8.165414 -9.566075,14.812618 1.183241,6.281704 6.458214,10.647789 12.873108,10.650881 l 16.462847,0 c 4.968369,0 9.929724,0.0091 14.898092,-0.0069 1.068634,-0.0031 2.145602,-0.0046 3.201842,-0.138113 4.819689,-0.607084 8.704133,-4.515172 9.283362,-9.263617 C 70.9966,52.851704 68.262727,48.056792 63.597913,46.377956 62.29387,45.907279 61.873694,45.284685 61.632102,44.017808 60.046185,35.679549 53.065281,29.350147 44.695877,28.547898 43.634989,28.446836 42.577848,28.43378 41.540063,28.50186 Z m 1.393817,4.858646 c 8.276482,0.195124 14.600381,6.92947 14.194606,15.187368 -0.06192,1.183241 -0.362426,2.365538 -0.644312,3.523996 -0.384086,1.579714 0.205704,2.89083 1.577912,3.28731 1.372182,0.396479 2.661414,-0.366432 3.12294,-1.893489 0.244679,-0.799152 0.418203,-1.623287 0.644314,-2.524654 2.549229,1.019073 3.959351,3.404034 3.71466,6.166993 -0.210622,2.391258 -2.261235,4.663202 -4.667986,5.121631 -0.604008,0.117699 -1.221012,0.17751 -1.834315,0.17751 -10.711105,0.01237 -21.425636,0.01303 -32.136744,0.0069 -4.132044,0 -7.435247,-2.444638 -8.336617,-6.127548 -0.858003,-3.52188 0.658141,-7.103953 3.780407,-8.92837 3.125364,-1.824423 6.930811,-1.388945 9.63182,1.104532 1.545644,1.424849 3.616135,1.003048 4.207755,-0.867848 0.359308,-1.133899 -0.08413,-2.025122 -0.920447,-2.774714 -1.44033,-1.294749 -3.062803,-2.270676 -4.924391,-2.846805 -0.210621,-0.06505 -0.413957,-0.162728 -0.624589,-0.243245 2.062927,-4.974564 7.651906,-8.499597 13.214987,-8.369493 z m 37.172902,7.935566 c -0.275282,0.0153 -0.552743,0.07723 -0.815255,0.184087 -1.046944,0.427453 -1.677952,1.539471 -1.433261,2.68244 0.09907,0.461529 0.353981,0.899484 0.604859,1.308353 2.719591,4.389136 3.707856,9.126299 2.899414,14.234051 -0.458425,2.889957 -1.542476,5.525662 -3.109796,7.988162 -1.02217,1.607597 -0.213224,3.490754 1.617349,3.806708 1.105805,0.19203 1.930702,-0.309894 2.537808,-1.236028 2.75367,-4.206388 4.061461,-8.845631 4.142011,-14.20118 -0.04029,-0.523475 -0.08114,-1.394754 -0.170934,-2.268245 -0.421256,-4.169213 -1.797216,-8.00043 -4.142017,-11.472707 -0.480883,-0.710887 -1.304298,-1.070946 -2.130171,-1.025641 z m -7.120314,3.944766 c -0.320148,0.03989 -0.64009,0.151007 -0.946747,0.335308 -1.26377,0.758884 -1.500415,2.247212 -0.611435,3.727811 2.87138,4.779417 2.852844,9.548634 -0.05262,14.306374 -0.848709,1.393869 -0.587351,2.880732 0.664035,3.648911 1.167757,0.71242 2.642792,0.266851 3.497705,-1.065085 1.911144,-2.964297 2.848708,-6.21434 2.879684,-9.454307 -0.0033,-3.80371 -0.94692,-7.059283 -2.827089,-10.032873 -0.676022,-1.068634 -1.643094,-1.585779 -2.603552,-1.466139 z"
     id="path4"
     inkscape:connector-curvature="0"
     style="fill:#ffffff" />
</svg>
