<?xml version="1.0" encoding="UTF-8" standalone="no"?>
<svg
   xmlns:dc="http://purl.org/dc/elements/1.1/"
   xmlns:cc="http://creativecommons.org/ns#"
   xmlns:rdf="http://www.w3.org/1999/02/22-rdf-syntax-ns#"
   xmlns:svg="http://www.w3.org/2000/svg"
   xmlns="http://www.w3.org/2000/svg"
   xmlns:sodipodi="http://sodipodi.sourceforge.net/DTD/sodipodi-0.dtd"
   xmlns:inkscape="http://www.inkscape.org/namespaces/inkscape"
   version="1.1"
   width="100"
   height="100"
   viewBox="0 0 100 100"
   id="svg2"
   inkscape:version="0.91 r13725"
   sodipodi:docname="soundcloud.svg">
  <metadata
     id="metadata10">
    <rdf:RDF>
      <cc:Work
         rdf:about="">
        <dc:format>image/svg+xml</dc:format>
        <dc:type
           rdf:resource="http://purl.org/dc/dcmitype/StillImage" />
        <dc:title></dc:title>
      </cc:Work>
    </rdf:RDF>
  </metadata>
  <defs
     id="defs8" />
  <sodipodi:namedview
     pagecolor="#ffffff"
     bordercolor="#666666"
     borderopacity="1"
     objecttolerance="10"
     gridtolerance="10"
     guidetolerance="10"
     inkscape:pageopacity="0"
     inkscape:pageshadow="2"
     inkscape:window-width="1080"
     inkscape:window-height="1865"
     id="namedview6"
     showgrid="false"
     inkscape:zoom="1.84375"
     inkscape:cx="-62.979384"
     inkscape:cy="64"
     inkscape:window-x="0"
     inkscape:window-y="29"
     inkscape:window-maximized="1"
     inkscape:current-layer="svg2" />
  <path
     d="m 48.656684,37.19083 0,24.820826 26.744215,0 0,0 c 5.648033,-0.39689 8.182017,-3.8773 8.182017,-8.151487 0,-4.51843 -3.419349,-8.151491 -7.998848,-8.151491 -1.160137,0 -2.137092,0.24424 -3.144577,0.671659 -0.732718,-7.144002 -6.808172,-12.730978 -14.288003,-12.730978 -3.572,0 -6.960822,1.343317 -9.494805,3.541471 m -2.686633,3.114052 c -0.915897,-0.549538 -1.892855,-0.976957 -2.961402,-1.190666 l 0,22.89744 4.243659,0 0,-23.385919 c -0.457949,0.488479 -0.885368,1.099077 -1.282257,1.679145 m -7.174531,-1.648616 0,23.35539 2.808752,0 0,-23.263799 c -0.580068,-0.09159 -1.160136,-0.12212 -1.770735,-0.12212 -0.366359,0 -0.702188,0 -1.038017,0.03053 m -5.586976,1.984445 0,21.370945 2.778223,0 0,-22.775322 c -1.007488,0.33583 -1.953915,0.824308 -2.778223,1.404377 m -5.098497,7.63248 c -0.183179,0 -0.366358,-0.183179 -0.580068,-0.274769 l 0,14.013234 2.808753,0 0,-18.745372 c -1.129607,1.465437 -1.892856,3.205642 -2.228685,5.006907 m -6.228102,-0.854838 0,14.318533 c 0.641128,0.183179 1.373846,0.27477 2.167623,0.27477 l 0.671659,0 0,-14.837542 c -0.244239,-0.03053 -0.488479,-0.06106 -0.671659,-0.06106 -0.793777,0 -1.526495,0.12212 -2.167623,0.3053 m -5.464857,7.144002 c 0,2.289744 1.038018,4.304719 2.656103,5.678565 l 0,-11.3266 c -1.618085,1.343317 -2.656103,3.388821 -2.656103,5.648035 z"
     id="path4"
     inkscape:connector-curvature="0"
     style="fill:#ffffff" />
</svg>
